<svg width="120" height="38" viewBox="0 0 120 38" fill="none" xmlns="http://www.w3.org/2000/svg">
<path d="M42.6192 21.2749C42.6192 24.1564 42.0487 26.8999 41.0113 29.4018C39.9912 31.8865 38.5043 34.1296 36.6543 36.0276C35.9972 36.7005 35.2192 37.2182 34.372 37.546C32.9543 38.0981 31.3463 38.1327 29.8767 37.546C27.4907 36.5797 26.3669 34.3884 26.3669 31.2308C26.8683 31.0928 27.3697 30.9202 27.8538 30.7304C32.3145 28.9187 36.101 24.536 35.3921 19.1353C35.3229 18.5659 34.6659 18.2899 34.1991 18.6177C31.2253 20.74 22.4594 19.4459 21.2837 24.1737C20.1253 19.4459 11.3421 20.74 8.36824 18.6177C7.90141 18.2899 7.2444 18.5659 7.17524 19.1353C6.37992 25.1572 11.1519 29.8677 16.2178 31.2481C16.2178 34.4057 15.1112 36.597 12.708 37.5633C10.3566 38.5123 7.67665 37.8738 5.93038 36.0448C2.40327 32.3351 0.172897 27.383 0.0172897 21.8961C0.0172897 21.689 0 21.482 0 21.2749C0 9.52454 9.54394 0 21.3183 0C25.7271 0 29.8248 1.3286 33.2136 3.62347C38.8846 7.45399 42.6192 13.9245 42.6192 21.2749Z" fill="url(#paint0_linear_462_118)"/>
<path opacity="0.2" d="M34.3719 37.546C32.9541 38.0982 31.3461 38.1327 29.8765 37.546C27.4905 36.5798 26.3667 34.3884 26.3667 31.2309C26.8681 31.0928 27.3695 30.9203 27.8536 30.7305C27.8017 34.63 30.2742 38.4088 34.3719 37.546Z" fill="black"/>
<path opacity="0.2" d="M8.24658 37.546C9.66434 38.0981 11.2723 38.1326 12.7419 37.546C15.1279 36.5797 16.2517 34.3884 16.2517 31.2135C15.7503 31.0755 15.2489 30.9029 14.7648 30.7131C14.834 34.6299 12.3443 38.4087 8.24658 37.546Z" fill="black"/>
<path opacity="0.03" d="M33.2136 3.62347C22.857 2.93328 2.92197 12.3198 0.0172897 21.8961C0.0172897 21.689 0 21.482 0 21.2749C0 9.52454 9.54394 0 21.3183 0C25.7271 0 29.8248 1.3286 33.2136 3.62347Z" fill="black"/>
<path opacity="0.01" d="M9.40552 3.62347C19.7621 2.93328 39.6971 12.3198 42.6191 21.8961C42.6191 21.689 42.6364 21.482 42.6364 21.2749C42.6191 9.52454 33.0752 0 21.3181 0C16.9093 0 12.8116 1.3286 9.40552 3.62347Z" fill="black"/>
<path d="M47.158 8.66553H51.1516L56.4263 26.9761H55.5221L60.7967 10.3233H63.208L68.6334 26.7501H67.8045L73.5313 8.66553H77.5249L70.0651 30.1409H66.2974L61.8517 16.9543H62.2284L57.7826 30.1409H54.015L47.158 8.66553Z" fill="white"/>
<path d="M79.4094 30.141V7.23389H82.951V30.141H79.4094ZM90.6369 30.141V20.6466C90.6369 19.3656 90.3355 18.386 89.7327 17.7079C89.1299 17.0297 88.301 16.7283 87.2461 16.7283C86.4172 16.7283 85.6637 16.9543 85.0608 17.4064C84.458 17.8586 83.9306 18.5367 83.5538 19.441C83.177 20.3452 83.0263 21.4755 83.0263 22.7565H81.8207C81.8207 20.7219 82.0468 18.9888 82.5742 17.6325C83.1017 16.2762 83.8552 15.2212 84.7594 14.5431C85.739 13.8649 86.8693 13.4881 88.1503 13.4881C89.4313 13.4881 90.5616 13.7895 91.4658 14.3924C92.37 14.9952 93.0482 15.824 93.5003 16.879C93.9524 17.9339 94.1785 19.2149 94.1785 20.6466V30.0656H90.6369V30.141Z" fill="white"/>
<path d="M103.22 30.593C101.864 30.593 100.734 30.3669 99.8294 29.8395C98.9252 29.3874 98.247 28.7092 97.7949 27.9557C97.3428 27.2022 97.1167 26.3733 97.1167 25.469C97.1167 24.4141 97.4181 23.5852 97.9456 22.8317C98.473 22.0782 99.2266 21.6261 100.206 21.2493C101.186 20.8726 102.316 20.7219 103.597 20.7219C104.501 20.7219 105.33 20.7972 106.084 20.9479C106.912 21.0986 107.666 21.2493 108.495 21.5507V23.6606C107.892 23.4345 107.139 23.2838 106.385 23.1331C105.632 22.9824 104.953 22.9824 104.275 22.9824C103.296 22.9824 102.467 23.1331 101.864 23.5099C101.261 23.8867 100.884 24.4895 100.884 25.3937C100.884 26.0719 101.11 26.5993 101.638 27.0514C102.165 27.5036 102.994 27.7296 104.049 27.7296C104.878 27.7296 105.632 27.5789 106.234 27.2022C106.837 26.8254 107.289 26.3733 107.666 25.8458C107.967 25.3183 108.193 24.7155 108.193 24.1881H108.947C108.947 25.3183 108.721 26.3733 108.269 27.3529C107.817 28.3324 107.214 29.086 106.31 29.6888C105.481 30.2916 104.501 30.593 103.22 30.593ZM108.57 30.1409L108.118 26.2979V19.6669C108.118 18.4613 107.892 17.5571 107.365 16.9542C106.837 16.3514 106.008 16.1254 104.878 16.1254C104.2 16.1254 103.672 16.2007 103.145 16.4268C102.617 16.6528 102.241 16.8789 102.015 17.2557C101.789 17.6324 101.638 18.0845 101.638 18.612H97.7195C97.7195 17.4064 98.0209 16.4268 98.6237 15.6733C99.2266 14.9197 100.055 14.3923 101.11 14.0155C102.165 13.6387 103.446 13.488 104.953 13.488C106.31 13.488 107.515 13.7141 108.495 14.1662C109.474 14.6183 110.303 15.2965 110.831 16.2007C111.434 17.1049 111.66 18.3106 111.66 19.7423V30.0655H108.57V30.1409Z" fill="white"/>
<path d="M115.955 30.141V7.23389H119.496V30.141H115.955Z" fill="white"/>
<defs>
<linearGradient id="paint0_linear_462_118" x1="21.312" y1="-8.21719" x2="21.312" y2="44.8395" gradientUnits="userSpaceOnUse">
<stop stop-color="white"/>
<stop offset="1" stop-color="#DFEFFF"/>
</linearGradient>
</defs>
</svg>
